<?xml version="1.0" standalone="no"?>
<!DOCTYPE svg PUBLIC "-//W3C//DTD SVG 20010904//EN"
 "http://www.w3.org/TR/2001/REC-SVG-20010904/DTD/svg10.dtd">
<svg version="1.0" xmlns="http://www.w3.org/2000/svg"
 width="360.000000pt" height="360.000000pt" viewBox="0 0 360.000000 360.000000"
 preserveAspectRatio="xMidYMid meet">
<metadata>
Created by potrace 1.11, written by Peter Selinger 2001-2013
</metadata>
<g transform="translate(0.000000,360.000000) scale(0.100000,-0.100000)"
fill="#000000" stroke="none">
<path d="M330 3588 c0 -7 11 -40 25 -72 21 -53 23 -62 10 -86 -13 -25 -12 -28
20 -54 28 -23 33 -35 37 -80 3 -32 16 -76 35 -112 16 -32 33 -75 37 -94 3 -19
20 -51 36 -71 16 -20 48 -74 70 -120 23 -46 45 -91 51 -99 5 -8 16 -30 25 -48
8 -18 51 -106 94 -195 44 -88 80 -171 80 -182 0 -12 7 -30 15 -41 8 -10 15
-29 15 -40 0 -12 7 -27 15 -34 22 -18 116 -217 129 -272 7 -29 -14 -58 -41
-58 -10 0 -13 -6 -9 -16 3 -9 6 -20 6 -26 0 -6 7 -8 15 -4 20 7 20 -18 0 -38
-20 -20 -19 -26 5 -26 11 0 23 7 26 15 8 21 80 20 88 -1 9 -22 8 -24 -9 -24
-8 0 -15 -4 -15 -10 0 -5 6 -10 13 -10 19 0 50 -37 42 -49 -3 -6 -12 -11 -19
-11 -7 0 -36 -11 -64 -25 -29 -14 -55 -25 -59 -24 -3 0 -11 -7 -16 -17 -7 -12
-6 -20 5 -28 9 -6 19 -26 22 -44 5 -19 14 -32 23 -32 10 0 14 -6 10 -20 -3
-12 0 -20 8 -20 7 0 18 -6 24 -13 13 -16 -6 -35 -53 -55 -16 -7 -26 -16 -22
-19 3 -4 18 0 32 7 29 16 59 4 59 -23 0 -9 7 -25 16 -35 9 -11 19 -25 22 -33
4 -10 6 -9 6 4 1 9 5 17 10 17 4 0 25 16 46 36 21 19 41 31 44 26 12 -18 36
-19 55 -3 11 9 17 11 13 5 -3 -6 4 -21 18 -34 19 -18 22 -26 12 -40 -6 -10
-18 -19 -26 -19 -36 -1 -87 -15 -93 -25 -5 -8 -8 -7 -8 2 0 6 -11 12 -25 12
-14 0 -25 6 -25 13 0 6 -8 -1 -19 -18 -10 -16 -14 -31 -9 -33 4 -2 8 -8 8 -13
0 -8 24 -66 52 -126 13 -26 48 -25 78 2 11 10 20 13 20 7 0 -17 29 -15 46 3
20 20 44 19 44 -1 0 -13 3 -14 15 -4 8 6 20 8 27 4 7 -5 20 -9 28 -9 9 0 16
-12 18 -30 2 -16 9 -34 16 -40 18 -14 48 -74 42 -84 -3 -5 4 -11 15 -14 12 -3
18 -10 15 -15 -3 -5 4 -20 15 -33 46 -53 76 -157 49 -167 -5 -2 -6 -10 -3 -18
4 -11 9 -12 18 -4 10 8 20 4 39 -17 14 -15 26 -35 26 -44 0 -9 7 -22 15 -29
24 -20 39 -91 25 -114 -10 -16 -10 -18 7 -12 14 6 16 5 6 -5 -18 -18 -16 -28
5 -22 17 4 52 -36 75 -87 4 -8 18 -35 32 -59 14 -24 25 -55 25 -68 0 -14 13
-38 30 -55 17 -16 30 -35 30 -41 0 -7 13 -40 29 -74 16 -34 27 -64 24 -67 -4
-3 -1 -6 6 -6 9 0 12 -9 9 -25 l-5 -25 523 0 c408 0 523 3 527 13 4 9 6 9 6
-1 1 -7 6 -10 11 -7 8 5 7 11 -1 21 -9 11 -6 14 18 14 32 0 53 16 53 40 0 22
36 55 45 41 9 -16 25 -13 25 4 0 8 5 15 11 15 5 0 8 4 5 9 -7 11 22 36 31 27
3 -3 1 -6 -5 -6 -7 0 -12 -7 -12 -15 0 -8 2 -15 4 -15 6 0 63 49 107 91 21 20
41 34 43 31 3 -3 18 8 33 24 15 16 29 29 33 29 3 0 34 23 67 50 l62 50 0 297
1 297 -372 -277 c-462 -342 -514 -377 -601 -404 -189 -57 -383 30 -525 235
-27 40 -123 200 -212 357 -89 157 -240 420 -335 585 -95 165 -202 352 -239
416 -41 72 -64 123 -60 133 4 10 1 16 -7 16 -11 0 -11 2 0 9 8 5 20 7 28 4 8
-3 13 3 13 17 0 28 20 16 21 -13 1 -12 6 -2 13 23 7 25 9 47 4 48 -11 5 -10
32 1 32 5 0 11 -5 13 -12 3 -7 11 -9 24 -4 10 5 14 10 8 13 -22 8 7 50 31 45
15 -2 29 4 41 20 25 32 69 50 69 28 0 -5 3 -10 8 -10 4 0 14 0 22 0 8 0 15 7
15 15 0 8 5 15 10 15 6 0 10 -4 10 -10 0 -6 9 -6 23 -1 16 6 22 17 23 38 1 38
12 55 33 48 12 -4 22 6 36 40 11 25 24 45 29 45 5 0 6 14 2 30 -5 25 -2 30 15
30 11 0 23 8 26 18 4 9 20 30 36 46 17 17 27 36 24 47 -3 11 2 19 13 22 15 4
37 73 31 100 -1 5 7 11 19 14 12 3 20 14 19 27 0 11 3 36 7 54 5 28 3 34 -15
39 -29 7 -26 21 7 29 98 22 215 53 219 58 16 15 -13 16 -95 3 -55 -8 -97 -20
-107 -30 -19 -19 -36 -22 -51 -7 -6 6 -50 2 -129 -14 -66 -13 -134 -26 -151
-29 -30 -6 -43 6 -270 232 -269 269 -329 337 -279 317 8 -3 59 1 113 10 53 8
138 19 187 24 50 5 117 14 150 20 33 6 157 24 275 40 118 17 224 33 234 36 10
4 51 10 90 14 39 4 -342 8 -846 9 -729 1 -918 -2 -918 -11z m917 -1480 c-3 -8
-6 -5 -6 6 -1 11 2 17 5 13 3 -3 4 -12 1 -19z m-17 -524 c0 -12 8 -38 19 -56
10 -18 22 -46 25 -63 6 -27 5 -28 -7 -12 -8 9 -19 17 -25 17 -6 0 -14 9 -17
20 -4 11 -11 18 -16 14 -6 -3 -8 -12 -5 -19 2 -7 -2 -21 -9 -32 -13 -17 -14
-16 -15 15 0 36 -24 44 -46 15 -7 -10 -15 -15 -19 -11 -10 10 18 48 36 48 9 0
22 7 29 15 10 12 7 13 -18 5 -25 -7 -34 -4 -53 16 -12 13 -26 21 -32 17 -6 -3
-7 -1 -3 5 4 7 16 12 27 12 10 0 19 5 19 10 0 6 5 10 11 10 6 0 8 -9 4 -21 -5
-15 -4 -19 4 -15 6 4 11 13 11 21 0 18 51 35 68 22 6 -5 12 -20 12 -33z"/>
<path d="M1361 3299 c-62 -12 -63 -19 -3 -19 28 0 53 4 57 9 9 15 -7 18 -54
10z"/>
<path d="M3570 3283 c-14 -2 -54 -13 -90 -23 -95 -29 -432 -104 -693 -155
-125 -24 -232 -47 -237 -50 -15 -9 -12 -32 6 -49 8 -9 17 -24 19 -35 2 -11 8
-29 14 -39 8 -16 7 -21 -4 -26 -11 -4 -14 -16 -12 -41 2 -19 0 -35 -4 -35 -17
0 -9 -29 15 -55 15 -16 30 -24 37 -19 8 5 10 2 6 -8 -4 -13 3 -16 44 -16 35 0
49 4 49 14 0 8 5 14 10 14 6 0 10 7 10 16 0 8 4 13 9 9 6 -3 7 9 4 30 -7 41
16 57 51 35 50 -32 70 -39 77 -29 3 6 9 10 13 10 21 -3 26 1 23 22 -2 18 2 22
26 20 24 -2 27 0 16 13 -10 12 -8 19 10 37 16 15 25 18 28 10 3 -7 11 -13 19
-13 17 0 17 5 2 29 -9 15 -8 22 5 35 21 21 26 20 36 -6 9 -23 9 -22 22 7 8 16
22 38 32 47 9 10 17 27 17 38 0 13 7 20 20 20 11 0 20 5 20 10 0 6 7 10 15 10
8 0 15 5 15 10 0 6 -7 13 -15 16 -30 12 -14 24 29 24 51 0 60 -14 47 -71 -5
-21 -4 -43 1 -53 5 -10 7 -24 4 -32 -4 -10 2 -14 19 -14 18 0 23 4 19 15 -5
11 0 15 17 13 63 -4 124 13 152 43 15 17 27 34 27 39 0 4 8 6 18 3 12 -3 22 4
29 20 7 14 21 28 32 32 18 6 21 14 21 71 0 35 -1 63 -2 63 -2 -1 -14 -4 -28
-6z m-693 -428 c-15 -16 -19 -13 -11 9 3 9 10 13 15 10 5 -3 3 -11 -4 -19z"/>
<path d="M1427 3186 c-113 -31 -30 -32 93 -2 l55 14 -50 0 c-27 0 -71 -5 -98
-12z"/>
<path d="M1555 3060 c-63 -16 -66 -18 -30 -18 22 0 72 8 110 18 63 16 66 18
30 18 -22 0 -71 -8 -110 -18z"/>
<path d="M1705 2400 c-3 -5 -1 -10 4 -10 6 0 11 5 11 10 0 6 -2 10 -4 10 -3 0
-8 -4 -11 -10z"/>
<path d="M1690 2369 c0 -5 5 -7 10 -4 6 3 10 8 10 11 0 2 -4 4 -10 4 -5 0 -10
-5 -10 -11z"/>
<path d="M1675 2320 c-3 -5 -1 -10 4 -10 6 0 11 5 11 10 0 6 -2 10 -4 10 -3 0
-8 -4 -11 -10z"/>
<path d="M1780 2060 c-207 -74 -260 -95 -260 -101 0 -6 250 -389 687 -1051 57
-87 106 -158 109 -158 6 0 0 10 -55 93 -28 44 -33 36 67 93 34 19 62 39 62 44
0 8 -608 868 -697 987 -13 17 -20 34 -15 37 9 6 71 -75 337 -440 316 -434 450
-614 459 -614 5 0 2 8 -7 18 -25 28 -21 36 28 67 58 37 50 46 -10 11 -25 -15
-50 -24 -55 -21 -11 7 -100 129 -100 138 0 2 28 21 61 41 71 42 67 44 139 -53
25 -33 49 -60 54 -61 5 0 4 6 -1 13 -5 6 -117 148 -249 315 -131 166 -255 324
-274 350 -19 26 -76 98 -127 160 -85 104 -108 139 -84 130 5 -1 96 -111 202
-243 337 -420 568 -703 581 -711 15 -10 -44 65 -407 515 -165 205 -316 392
-335 416 -19 24 -39 44 -45 44 -5 0 -35 -9 -65 -19z m64 -43 c15 -19 26 -37
26 -40 0 -7 -109 -42 -112 -36 -2 2 -14 19 -26 37 -26 37 -27 37 8 47 23 7 24
6 7 -7 -15 -11 -16 -16 -5 -25 22 -17 77 -33 83 -23 8 12 -5 60 -16 60 -5 0
-9 5 -9 10 0 20 19 9 44 -23z m-168 -54 c36 -50 36 -50 -8 -66 -24 -8 -50 -18
-59 -21 -11 -5 -24 5 -43 34 -30 46 -30 45 0 54 19 6 21 3 18 -24 -3 -29 10
-43 18 -19 3 9 10 9 27 0 36 -20 50 1 28 39 -23 38 -8 39 19 3z m243 -40 c17
-21 31 -40 31 -44 0 -3 -24 -16 -52 -27 l-53 -21 -33 37 c-18 19 -31 41 -29
46 6 19 56 31 70 17 10 -10 8 -11 -5 -6 -10 4 -18 3 -18 -3 0 -6 -3 -19 -7
-29 -6 -16 -4 -16 16 2 23 20 23 20 20 0 -3 -16 2 -20 25 -20 16 0 31 6 34 13
3 9 -4 12 -20 9 -12 -2 -17 -2 -10 0 16 6 15 18 -3 33 -8 7 -15 16 -15 21 0
19 20 7 49 -28z m-139 -109 c0 -5 -27 -20 -59 -31 l-60 -22 -30 47 -30 46 31
13 c43 18 60 10 53 -26 -4 -23 -1 -30 17 -35 28 -7 47 9 31 25 -6 6 -9 18 -6
25 3 8 -1 14 -11 14 -17 0 -21 12 -9 24 9 8 73 -62 73 -80z m223 1 l38 -45
-23 -9 c-13 -5 -40 -16 -60 -25 l-37 -16 -36 47 -36 47 23 13 c33 18 57 17 32
-2 -18 -14 -18 -16 -1 -26 9 -5 15 -14 12 -19 -3 -5 -1 -11 5 -15 5 -3 10 -2
10 3 0 13 39 22 46 11 3 -5 10 -7 15 -4 5 4 -2 21 -16 39 -48 63 -24 64 28 1z
m-143 -114 c0 -8 -119 -56 -123 -50 -2 2 -18 25 -35 50 l-31 46 25 12 c31 14
37 14 28 0 -3 -6 0 -15 7 -20 12 -8 12 -11 -1 -19 -13 -8 -13 -10 1 -10 9 0
22 -6 29 -14 13 -17 56 -7 54 13 -1 6 -2 18 -2 26 -1 8 -9 15 -17 15 -8 0 -15
5 -15 10 0 6 -8 10 -17 10 -14 1 -12 4 7 14 24 14 26 12 57 -32 18 -25 33 -48
33 -51z m260 -32 c7 -13 -2 -20 -53 -41 l-62 -26 -37 52 -37 51 57 27 57 27
33 -37 c18 -20 37 -44 42 -53z m-205 -39 c21 -28 36 -52 34 -54 -2 -1 -32 -14
-66 -28 l-61 -27 -37 56 c-20 30 -35 56 -33 57 10 7 105 45 115 45 6 1 28 -22
48 -49z m272 -44 l41 -53 -54 -26 c-30 -15 -60 -27 -68 -27 -11 0 -53 52 -80
98 -5 9 9 20 46 37 29 13 58 24 63 24 6 0 29 -24 52 -53z m-183 -79 c20 -29
36 -55 36 -58 0 -7 -112 -59 -126 -59 -5 0 -26 26 -46 58 l-38 57 58 27 c31
16 62 28 68 28 6 0 28 -24 48 -53z m286 -52 c24 -31 41 -57 39 -59 -12 -11
-110 -56 -121 -56 -7 0 -22 13 -32 28 -11 15 -31 42 -44 60 l-24 32 63 29 c35
16 67 27 70 25 3 -2 25 -28 49 -59z m-194 -77 c20 -29 37 -58 38 -66 1 -13
-96 -71 -120 -72 -6 0 -29 29 -52 65 l-41 65 57 30 c31 16 62 29 69 30 6 0 28
-23 49 -52z m306 -65 l49 -62 -69 -35 -70 -35 -51 69 -51 70 58 30 c31 16 63
28 71 27 8 -1 37 -30 63 -64z m-197 -88 c26 -35 44 -69 41 -74 -8 -12 -112
-71 -126 -71 -11 0 -106 138 -99 144 7 7 124 65 131 66 4 0 28 -29 53 -65z
m119 -165 c25 -35 46 -67 46 -72 0 -8 -140 -92 -144 -86 -20 24 -96 145 -96
153 0 13 133 84 141 76 4 -3 27 -35 53 -71z"/>
<path d="M1650 1843 c0 -26 1 -26 14 -8 14 20 12 35 -5 35 -5 0 -9 -12 -9 -27z"/>
<path d="M2102 1612 c-10 -3 -8 -8 5 -18 17 -13 17 -14 0 -8 -16 6 -47 -10
-47 -25 0 -3 10 -12 22 -20 19 -12 23 -11 38 10 l18 22 6 -21 c4 -12 13 -22
21 -22 10 0 11 6 3 28 -12 32 -47 61 -66 54z m-2 -52 c0 -5 -2 -10 -4 -10 -3
0 -8 5 -11 10 -3 6 -1 10 4 10 6 0 11 -4 11 -10z"/>
<path d="M1903 1523 c-7 -2 -13 -11 -13 -18 0 -7 6 -16 13 -19 10 -5 10 -7 0
-12 -16 -7 -17 -24 -1 -24 6 0 19 -7 28 -15 14 -13 22 -14 44 -4 28 13 33 24
16 34 -6 4 -9 14 -8 23 2 11 -3 16 -13 14 -9 -1 -19 4 -23 13 -5 15 -20 18
-43 8z"/>
<path d="M2203 1476 c23 -18 22 -22 -10 -21 -35 0 -43 -29 -12 -46 19 -10 25
-9 40 10 18 22 18 22 29 1 6 -11 18 -20 26 -20 11 0 7 12 -17 45 -21 29 -40
45 -53 45 -20 -1 -20 -2 -3 -14z m-3 -46 c0 -5 -2 -10 -4 -10 -3 0 -8 5 -11
10 -3 6 -1 10 4 10 6 0 11 -4 11 -10z"/>
<path d="M2021 1401 c-11 -7 -11 -9 0 -14 11 -4 11 -6 -1 -7 -8 0 -24 -8 -35
-17 -20 -15 -20 -15 3 -10 23 5 32 -8 10 -16 -10 -3 -10 -7 1 -20 17 -22 31
-21 46 0 12 16 14 16 31 -1 30 -30 28 0 -2 41 -15 21 -30 41 -34 45 -3 4 -11
3 -19 -1z m19 -71 c0 -5 -4 -10 -10 -10 -5 0 -10 5 -10 10 0 6 5 10 10 10 6 0
10 -4 10 -10z"/>
<path d="M2300 1344 c0 -3 10 -14 22 -23 22 -19 18 -41 -8 -41 -11 0 -13 6 -9
20 7 23 2 24 -25 10 -18 -10 -18 -11 4 -35 28 -30 35 -31 51 -8 12 17 14 17
34 -1 36 -32 33 -12 -4 37 -31 40 -65 62 -65 41z"/>
<path d="M2117 1254 c-3 -3 3 -19 15 -34 11 -16 17 -33 14 -39 -11 -17 -25
-13 -20 7 2 9 0 23 -5 30 -7 12 -12 12 -30 1 -27 -18 -27 -29 2 -22 21 5 21 5
4 -9 -18 -13 -17 -15 3 -33 22 -20 22 -20 41 4 19 23 20 23 33 5 20 -26 32
-10 13 17 -9 11 -13 28 -10 35 3 8 -1 14 -8 14 -7 0 -20 7 -29 15 -9 8 -19 12
-23 9z"/>
<path d="M0 2030 c0 -5 7 -10 16 -10 8 0 12 5 9 10 -3 6 -10 10 -16 10 -5 0
-9 -4 -9 -10z"/>
<path d="M8 1973 c7 -3 16 -2 19 1 4 3 -2 6 -13 5 -11 0 -14 -3 -6 -6z"/>
<path d="M1006 1801 c-3 -4 0 -16 8 -26 10 -14 16 -16 34 -6 32 17 28 41 -7
41 -17 0 -32 -4 -35 -9z"/>
<path d="M290 1730 c0 -5 4 -10 9 -10 6 0 13 5 16 10 3 6 -1 10 -9 10 -9 0
-16 -4 -16 -10z"/>
<path d="M220 1710 c0 -5 7 -7 15 -4 8 4 15 8 15 10 0 2 -7 4 -15 4 -8 0 -15
-4 -15 -10z"/>
<path d="M15 1624 c9 -9 19 -13 23 -10 3 4 0 11 -8 16 -24 15 -33 11 -15 -6z"/>
<path d="M45 1530 c-3 -5 -1 -10 4 -10 6 0 11 5 11 10 0 6 -2 10 -4 10 -3 0
-8 -4 -11 -10z"/>
<path d="M0 1520 c0 -5 5 -10 10 -10 6 0 10 5 10 10 0 6 -4 10 -10 10 -5 0
-10 -4 -10 -10z"/>
<path d="M510 1520 c0 -5 5 -10 10 -10 6 0 10 5 10 10 0 6 -4 10 -10 10 -5 0
-10 -4 -10 -10z"/>
<path d="M830 1460 c-13 -8 -12 -10 3 -10 9 0 17 5 17 10 0 12 -1 12 -20 0z"/>
<path d="M903 1441 c5 -31 12 -33 32 -11 10 11 13 20 7 20 -6 0 -18 3 -26 6
-12 5 -15 1 -13 -15z"/>
<path d="M670 1419 c0 -5 5 -7 10 -4 6 3 10 8 10 11 0 2 -4 4 -10 4 -5 0 -10
-5 -10 -11z"/>
<path d="M265 1410 c-4 -6 5 -10 19 -10 14 0 26 5 26 10 0 6 -9 10 -19 10 -11
0 -23 -4 -26 -10z"/>
<path d="M370 1410 c-18 -12 -2 -12 25 0 13 6 15 9 5 9 -8 0 -22 -4 -30 -9z"/>
<path d="M620 1409 c0 -5 5 -7 10 -4 6 3 10 8 10 11 0 2 -4 4 -10 4 -5 0 -10
-5 -10 -11z"/>
<path d="M655 1390 c-3 -5 -1 -10 4 -10 6 0 11 5 11 10 0 6 -2 10 -4 10 -3 0
-8 -4 -11 -10z"/>
<path d="M765 1390 c-3 -5 1 -10 9 -10 8 0 18 5 21 10 3 6 -1 10 -9 10 -8 0
-18 -4 -21 -10z"/>
<path d="M997 1383 c-12 -12 -7 -22 8 -17 8 4 15 10 15 15 0 11 -14 12 -23 2z"/>
<path d="M20 1359 c0 -5 5 -7 10 -4 6 3 10 8 10 11 0 2 -4 4 -10 4 -5 0 -10
-5 -10 -11z"/>
<path d="M455 1350 c-3 -5 1 -10 9 -10 9 0 16 5 16 10 0 6 -4 10 -9 10 -6 0
-13 -4 -16 -10z"/>
<path d="M590 1350 c-12 -8 -11 -10 7 -10 12 0 25 5 28 10 8 13 -15 13 -35 0z"/>
<path d="M465 1320 c-3 -5 1 -10 9 -10 8 0 18 5 21 10 3 6 -1 10 -9 10 -8 0
-18 -4 -21 -10z"/>
<path d="M300 1300 c0 -13 11 -13 30 0 12 8 11 10 -7 10 -13 0 -23 -4 -23 -10z"/>
<path d="M200 1280 c0 -5 6 -10 14 -10 8 0 18 5 21 10 3 6 -3 10 -14 10 -12 0
-21 -4 -21 -10z"/>
<path d="M715 1280 c-8 -13 5 -13 25 0 13 8 13 10 -2 10 -9 0 -20 -4 -23 -10z"/>
<path d="M115 1260 c-3 -5 1 -10 9 -10 8 0 18 5 21 10 3 6 -1 10 -9 10 -8 0
-18 -4 -21 -10z"/>
<path d="M365 1263 c-26 -6 -44 -23 -24 -23 8 0 24 7 35 15 10 8 17 14 14 14
-3 -1 -14 -3 -25 -6z"/>
<path d="M40 1250 c-9 -6 -10 -10 -3 -10 6 0 15 5 18 10 8 12 4 12 -15 0z"/>
<path d="M330 1210 c0 -5 7 -10 15 -10 8 0 15 5 15 10 0 6 -7 10 -15 10 -8 0
-15 -4 -15 -10z"/>
<path d="M930 1203 c-27 -18 -41 -35 -35 -41 6 -7 64 31 69 45 7 18 -5 16 -34
-4z"/>
<path d="M1060 1213 c0 -6 -13 -16 -30 -23 -39 -16 -39 -32 0 -17 28 11 46 34
35 45 -3 3 -5 1 -5 -5z"/>
<path d="M65 1200 c-3 -5 1 -10 9 -10 8 0 18 5 21 10 3 6 -1 10 -9 10 -8 0
-18 -4 -21 -10z"/>
<path d="M174 1195 c-15 -11 -16 -14 -3 -15 8 0 24 7 35 15 15 11 16 14 3 15
-8 0 -24 -7 -35 -15z"/>
<path d="M2420 1189 c0 -5 4 -8 9 -5 5 3 12 -1 15 -9 4 -12 0 -14 -18 -9 -14
3 -27 -1 -36 -11 -11 -13 -10 -19 5 -35 24 -27 43 -25 51 5 8 31 10 31 39 -2
39 -46 38 -20 -1 30 -34 44 -64 61 -64 36z m10 -54 c0 -8 -4 -15 -9 -15 -5 0
-11 7 -15 15 -3 9 0 15 9 15 8 0 15 -7 15 -15z"/>
<path d="M950 1165 c-10 -12 -10 -15 3 -15 8 0 20 7 27 15 10 12 10 15 -3 15
-8 0 -20 -7 -27 -15z"/>
<path d="M652 1150 c-26 -11 -46 -56 -36 -79 6 -14 8 -14 11 2 3 9 11 17 19
17 8 0 14 6 12 14 -2 7 8 23 22 34 27 23 14 28 -28 12z"/>
<path d="M703 1136 c-13 -12 -23 -24 -23 -27 0 -9 31 -4 68 12 38 16 43 33 7
27 -13 -3 -26 -2 -27 2 -2 4 -13 -3 -25 -14z"/>
<path d="M1366 1113 c-6 -14 -5 -15 5 -6 7 7 10 15 7 18 -3 3 -9 -2 -12 -12z"/>
<path d="M1427 1099 c-9 -6 -21 -8 -25 -5 -4 2 -9 -4 -9 -15 -2 -24 18 -24 48
-1 24 21 14 36 -14 21z"/>
<path d="M364 1060 c-32 -13 -43 -35 -14 -27 13 3 32 1 43 -5 17 -9 19 -8 14
7 -4 9 -7 21 -7 26 0 11 -8 11 -36 -1z"/>
<path d="M1265 1035 c-37 -30 -28 -32 20 -5 20 11 40 18 46 15 5 -4 9 -1 9 4
0 20 -45 11 -75 -14z"/>
<path d="M128 1020 c-43 -9 -83 -22 -90 -29 -11 -11 -8 -12 17 -6 17 4 50 9
74 12 38 3 42 2 32 -11 -17 -20 4 -30 23 -10 9 8 20 12 26 9 5 -3 10 1 10 9 0
9 -8 16 -17 16 -15 0 -16 2 -3 10 25 16 7 16 -72 0z"/>
<path d="M283 1023 c-18 -6 -16 -23 1 -23 17 0 30 16 19 23 -5 2 -14 2 -20 0z"/>
<path d="M2537 1012 c-15 -9 -27 -21 -27 -26 0 -5 8 -2 18 7 10 10 25 17 33
17 9 -1 4 -9 -12 -23 -25 -21 -25 -23 -8 -39 11 -10 21 -13 24 -8 9 15 23 12
27 -5 2 -11 8 -10 28 6 20 16 21 18 4 10 -25 -12 -38 -3 -23 16 8 9 8 13 1 13
-6 0 -14 -4 -17 -10 -8 -13 -35 -13 -35 1 0 6 9 13 20 16 23 6 25 16 7 31 -9
8 -20 6 -40 -6z"/>
<path d="M245 1000 c3 -5 8 -10 11 -10 2 0 4 5 4 10 0 6 -5 10 -11 10 -5 0 -7
-4 -4 -10z"/>
<path d="M634 995 c-10 -8 -14 -15 -8 -15 5 0 19 7 30 15 10 8 14 15 8 15 -5
0 -19 -7 -30 -15z"/>
<path d="M1463 988 c-18 -11 -33 -24 -33 -28 0 -14 61 11 67 27 8 22 1 22 -34
1z"/>
<path d="M85 980 c-3 -5 -1 -10 4 -10 6 0 11 5 11 10 0 6 -2 10 -4 10 -3 0 -8
-4 -11 -10z"/>
<path d="M124 976 c-3 -9 -12 -16 -20 -16 -8 0 -14 -4 -14 -8 0 -16 40 -7 46
11 7 23 -3 36 -12 13z"/>
<path d="M720 970 c-24 -15 -7 -19 20 -5 15 8 19 14 10 14 -8 1 -22 -3 -30 -9z"/>
<path d="M60 963 c5 -2 8 -9 4 -14 -3 -5 0 -9 6 -9 15 0 7 23 -8 26 -7 1 -8 0
-2 -3z"/>
<path d="M635 960 c-3 -5 1 -10 9 -10 9 0 16 5 16 10 0 6 -4 10 -9 10 -6 0
-13 -4 -16 -10z"/>
<path d="M1336 954 c-21 -20 -20 -22 8 -20 13 0 22 3 20 5 -2 2 1 10 7 18 17
19 -15 17 -35 -3z"/>
<path d="M1400 939 c0 -27 2 -30 15 -19 12 10 13 15 4 20 -6 4 -8 13 -5 19 4
6 2 11 -3 11 -6 0 -11 -14 -11 -31z"/>
<path d="M2400 964 c1 -13 29 -48 34 -43 2 2 -4 15 -15 28 -10 13 -19 19 -19
15z"/>
<path d="M766 951 c-17 -6 -17 -8 -4 -14 10 -3 19 0 22 9 3 8 4 14 3 13 -1 0
-11 -4 -21 -8z"/>
<path d="M425 924 l-30 -14 30 6 c31 6 41 11 34 18 -2 2 -17 -2 -34 -10z"/>
<path d="M1005 930 c-3 -6 1 -7 9 -4 18 7 21 14 7 14 -6 0 -13 -4 -16 -10z"/>
<path d="M81 911 c-8 -5 -9 -11 -3 -15 13 -8 42 3 42 15 0 11 -21 11 -39 0z"/>
<path d="M168 913 c7 -3 16 -2 19 1 4 3 -2 6 -13 5 -11 0 -14 -3 -6 -6z"/>
<path d="M850 910 c-8 -5 -10 -10 -5 -10 6 0 17 5 25 10 8 5 11 10 5 10 -5 0
-17 -5 -25 -10z"/>
<path d="M2563 913 c-15 -5 -17 -23 -4 -23 5 0 11 7 15 15 3 8 4 15 3 14 -1 0
-8 -3 -14 -6z"/>
<path d="M15 900 c-3 -5 1 -10 9 -10 8 0 18 5 21 10 3 6 -1 10 -9 10 -8 0 -18
-4 -21 -10z"/>
<path d="M200 890 c-12 -8 -11 -10 8 -10 12 0 22 5 22 10 0 13 -11 13 -30 0z"/>
<path d="M56 844 c-11 -7 -17 -16 -15 -19 3 -3 14 2 25 9 10 8 17 17 14 19 -3
3 -14 -1 -24 -9z"/>
<path d="M2550 825 c-7 -8 -18 -15 -25 -15 -8 0 -15 -4 -17 -8 -1 -4 -38 -30
-80 -56 -74 -46 -98 -66 -62 -52 32 12 214 129 214 138 0 13 -16 9 -30 -7z"/>
<path d="M1198 819 c-31 -17 -19 -30 12 -14 17 9 30 18 30 20 0 8 -24 5 -42
-6z"/>
<path d="M173 810 c-13 -5 -23 -12 -23 -15 0 -9 16 -5 36 10 22 16 19 18 -13
5z"/>
<path d="M70 800 c-13 -8 -12 -10 3 -10 9 0 17 5 17 10 0 12 -1 12 -20 0z"/>
<path d="M140 730 c0 -5 7 -7 15 -4 8 4 15 8 15 10 0 2 -7 4 -15 4 -8 0 -15
-4 -15 -10z"/>
<path d="M1513 718 c-18 -11 -33 -24 -33 -30 0 -5 -4 -7 -9 -3 -5 3 -13 0 -17
-6 -13 -22 20 -30 38 -9 9 11 21 20 27 20 6 0 11 4 11 9 0 5 7 17 16 25 21 21
6 19 -33 -6z"/>
<path d="M730 715 c-14 -8 -20 -14 -14 -15 5 0 19 7 30 15 24 18 16 19 -16 0z"/>
<path d="M345 690 c-3 -5 -2 -10 4 -10 5 0 13 5 16 10 3 6 2 10 -4 10 -5 0
-13 -4 -16 -10z"/>
<path d="M410 690 c-9 -6 -10 -10 -3 -10 6 0 15 5 18 10 8 12 4 12 -15 0z"/>
<path d="M620 680 c0 -5 4 -10 9 -10 6 0 13 5 16 10 3 6 -1 10 -9 10 -9 0 -16
-4 -16 -10z"/>
<path d="M885 670 c-3 -5 -2 -10 4 -10 5 0 13 5 16 10 3 6 2 10 -4 10 -5 0
-13 -4 -16 -10z"/>
<path d="M370 610 c-9 -6 -10 -10 -3 -10 6 0 15 5 18 10 8 12 4 12 -15 0z"/>
<path d="M115 600 c-3 -5 -2 -10 4 -10 5 0 13 5 16 10 3 6 2 10 -4 10 -5 0
-13 -4 -16 -10z"/>
<path d="M520 590 c-13 -8 -13 -10 2 -10 9 0 20 5 23 10 8 13 -5 13 -25 0z"/>
<path d="M30 580 c-8 -5 -12 -12 -9 -15 4 -3 12 1 19 10 14 17 11 19 -10 5z"/>
<path d="M205 550 c-8 -13 5 -13 25 0 13 8 13 10 -2 10 -9 0 -20 -4 -23 -10z"/>
<path d="M1596 435 c-4 -15 -5 -30 -1 -33 3 -3 5 2 5 11 0 8 4 17 10 19 5 2 6
9 1 16 -6 10 -10 7 -15 -13z"/>
<path d="M1750 189 c0 -5 5 -7 10 -4 6 3 10 8 10 11 0 2 -4 4 -10 4 -5 0 -10
-5 -10 -11z"/>
<path d="M1830 65 c-17 -21 -8 -28 15 -11 11 8 14 15 8 19 -6 4 -16 0 -23 -8z"/>
<path d="M1885 49 c-4 -6 -5 -13 -2 -16 7 -7 27 6 27 18 0 12 -17 12 -25 -2z"/>
</g>
</svg>
